HIERARCHY
ROOT Pelvis
{
	OFFSET 0.000000 0.000000 0.000000
	CHANNELS 6 Xposition Yposition Zposition Xrotation Yrotation Zrotation
	JOINT LeftUpLeg_virtual
	{
		OFFSET 0.000000 0.000000 0.000000
		CHANNELS 3 Xrotation Yrotation Zrotation
		JOINT LeftUpLeg
		{
			OFFSET 18.735201 -5.666702 -4.541200
			CHANNELS 3 Xrotation Yrotation Zrotation
			JOINT LeftLeg
			{
				OFFSET -0.021200 -31.938179 0.493100
				CHANNELS 3 Xrotation Yrotation Zrotation
				JOINT LeftFoot
				{
					OFFSET 0.021200 -31.938179 -4.336299
					CHANNELS 3 Xrotation Yrotation Zrotation
					JOINT LeftToeBase
					{
						OFFSET 0.943001 -26.722000 15.023500
						CHANNELS 3 Xrotation Yrotation Zrotation
						End Site
						{
							OFFSET 0 0 0
						}
					}
				}
			}
		}
	}
	JOINT RightUpLeg_virtual
	{
		OFFSET 0.000000 0.000000 0.000000
		CHANNELS 3 Xrotation Yrotation Zrotation
		JOINT RightUpLeg
		{
			OFFSET -18.735201 -5.666702 -4.541200
			CHANNELS 3 Xrotation Yrotation Zrotation
			JOINT RightLeg
			{
				OFFSET 0.018946 -31.938133 0.493100
				CHANNELS 3 Xrotation Yrotation Zrotation
				JOINT RightFoot
				{
					OFFSET -0.018946 -31.938126 -4.336299
					CHANNELS 3 Xrotation Yrotation Zrotation
					JOINT RightToeBase
					{
						OFFSET -0.943001 -26.722004 15.023500
						CHANNELS 3 Xrotation Yrotation Zrotation
						End Site
						{
							OFFSET 0 0 0
						}
					}
				}
			}
		}
	}
	JOINT Hips_virtual
	{
		OFFSET 0.000000 0.000000 0.000000
		CHANNELS 3 Xrotation Yrotation Zrotation
		JOINT Hips
		{
			OFFSET -0.000000 -0.000000 -0.000000
			CHANNELS 3 Xrotation Yrotation Zrotation
			JOINT Spine
			{
				OFFSET 0.000000 10.199997 -0.299500
				CHANNELS 3 Xrotation Yrotation Zrotation
				JOINT Spine1
				{
					OFFSET 0.000000 11.900002 -1.516600
					CHANNELS 3 Xrotation Yrotation Zrotation
					JOINT Spine2
					{
						OFFSET 0.000000 13.600006 -2.842500
						CHANNELS 3 Xrotation Yrotation Zrotation
						JOINT Neck_virtual
						{
							OFFSET 0.000000 0.000000 0.000000
							CHANNELS 3 Xrotation Yrotation Zrotation
							JOINT Neck
							{
								OFFSET 0.000000 9.624100 -2.890100
								CHANNELS 3 Xrotation Yrotation Zrotation
								JOINT Head
								{
									OFFSET 0.000000 14.068802 -1.351900
									CHANNELS 3 Xrotation Yrotation Zrotation
									End Site
									{
										OFFSET 0 0 0
									}
								}
							}
						}
						JOINT LeftShoulder_virtual
						{
							OFFSET 0.000000 0.000000 0.000000
							CHANNELS 3 Xrotation Yrotation Zrotation
							JOINT LeftShoulder
							{
								OFFSET 15.263000 10.923401 -0.547700
								CHANNELS 3 Xrotation Yrotation Zrotation
								JOINT LeftArm
								{
									OFFSET 25.438599 -2.830597 -13.032500
									CHANNELS 3 Xrotation Yrotation Zrotation
									JOINT LeftForeArm
									{
										OFFSET 29.960503 0.000000 0.000000
										CHANNELS 3 Xrotation Yrotation Zrotation
										JOINT LeftHand
										{
											OFFSET 27.849251 0.000000 0.000000
											CHANNELS 3 Xrotation Yrotation Zrotation
											End Site
											{
												OFFSET 0 0 0
											}
										}
									}
								}
							}
						}
						JOINT RightShoulder_virtual
						{
							OFFSET 0.000000 0.000000 0.000000
							CHANNELS 3 Xrotation Yrotation Zrotation
							JOINT RightShoulder
							{
								OFFSET -15.263000 10.923401 -0.547700
								CHANNELS 3 Xrotation Yrotation Zrotation
								JOINT RightArm
								{
									OFFSET -25.438599 -2.830597 -13.032500
									CHANNELS 3 Xrotation Yrotation Zrotation
									JOINT RightForeArm
									{
										OFFSET -29.960503 0.000000 0.000000
										CHANNELS 3 Xrotation Yrotation Zrotation
										JOINT RightHand
										{
											OFFSET -27.849251 0.000000 0.000000
											CHANNELS 3 Xrotation Yrotation Zrotation
											End Site
											{
												OFFSET 0 0 0
											}
										}
									}
								}
							}
						}
					}
				}
			}
		}
	}
}
MOTION
Frames: 12
Frame Time: 0.03333333
-3.916342 83.270355 2.332136 0.000000 0.000000 0.000000 3.004777 -58.203245 6.441833 -38.301843 6.311069 29.650555 47.035790 -9.822859 -10.645410 -10.049958 -1.879521 -11.956709 0.000000 0.000000 0.000000 3.004777 -58.203245 6.441833 -34.545741 -3.812530 -30.706020 55.038972 4.468124 -7.825150 -22.928404 0.222264 25.857687 0.000000 0.000000 0.000000 3.004777 -58.203245 6.441833 0.000000 0.000000 0.000000 11.191379 0.081089 -2.661025 8.434584 0.027705 -5.592322 0.000000 0.000000 0.000000 8.457050 0.027864 -5.591870 -3.775665 5.323473 1.581315 0.000000 0.000000 0.000000 8.457050 0.027864 -5.591870 -6.221667 -11.503861 -4.023831 -23.062171 9.568537 -36.639607 0.046108 -43.169108 -0.011155 0.000000 0.000000 0.000000 8.457050 0.027864 -5.591870 -5.488232 10.658263 2.466534 -41.473800 -26.755596 30.079067 -155.044529 68.137011 156.691534 0.000000 0.000000 0.000000 
-3.947047 83.251038 2.401356 0.000000 0.000000 0.000000 2.467218 -58.197228 5.913007 -38.114631 6.231083 29.688551 47.345546 -9.912351 -10.558550 -10.266795 -1.820040 -11.960711 0.000000 0.000000 0.000000 2.467218 -58.197228 5.913007 -34.452949 -4.236224 -31.202087 55.135438 5.145167 -7.399932 -23.030606 0.358083 25.368683 0.000000 0.000000 0.000000 2.467218 -58.197228 5.913007 0.000000 0.000000 0.000000 11.181062 0.067258 -2.641213 8.413341 0.007708 -5.542170 0.000000 0.000000 0.000000 8.435800 0.007778 -5.541682 -3.796482 5.302152 1.587072 0.000000 0.000000 0.000000 8.435800 0.007778 -5.541682 -6.261263 -11.506435 -4.015208 -22.811128 9.698540 -36.516623 0.794426 -43.624107 0.229708 0.000000 0.000000 0.000000 8.435800 0.007778 -5.541682 -5.513964 10.443171 2.326545 -40.253474 -26.263781 30.874292 -157.289134 68.700529 158.678231 0.000000 0.000000 0.000000 
-4.076287 83.143524 2.593040 0.000000 0.000000 0.000000 1.747115 -58.136986 5.213316 -37.913110 6.047381 29.798684 48.066643 -10.146391 -10.546757 -10.811825 -1.737164 -11.890114 0.000000 0.000000 0.000000 1.747115 -58.136986 5.213316 -34.114176 -4.626955 -31.735733 55.368652 5.746843 -7.088635 -23.362396 0.376145 25.135945 0.000000 0.000000 0.000000 1.747115 -58.136986 5.213316 0.000000 -0.000001 0.000000 11.142161 0.031995 -2.583995 8.334202 -0.045756 -5.404247 0.000000 0.000000 0.000000 8.356675 -0.045670 -5.403788 -3.838172 5.243539 1.604121 0.000000 0.000000 0.000000 8.356675 -0.045670 -5.403788 -6.328842 -11.488492 -3.983637 -22.131666 10.073043 -36.144029 2.769436 -44.886873 0.926461 0.000000 0.000000 0.000000 8.356675 -0.045670 -5.403788 -5.548074 9.866002 1.937135 -37.030537 -24.874089 32.856926 -164.018278 70.090841 164.779147 0.000000 0.000000 0.000000 
-4.286093 82.997719 2.875538 0.000000 0.000000 0.000000 0.901019 -58.020012 4.388054 -37.679654 5.879531 30.029354 48.952980 -10.579241 -10.656718 -11.529823 -1.654590 -11.692379 0.000000 0.000000 0.000000 0.901019 -58.020012 4.388054 -33.524440 -5.005434 -32.206651 55.617752 6.182562 -6.906743 -23.827422 0.311499 25.091603 0.000000 0.000000 0.000000 0.901019 -58.020012 4.388054 0.000000 0.000002 0.000000 11.077116 -0.019375 -2.497339 8.202124 -0.124057 -5.198296 0.000000 0.000000 0.000000 8.224613 -0.123936 -5.197834 -3.884290 5.155136 1.629748 0.000000 0.000000 0.000000 8.224613 -0.123936 -5.197834 -6.417279 -11.419012 -3.918487 -21.132132 10.674317 -35.524476 5.610357 -46.795463 2.096788 0.000000 0.000000 0.000000 8.224613 -0.123936 -5.197834 -5.599939 9.021862 1.345363 -32.495110 -22.695877 35.348148 -175.656073 71.657823 175.667821 0.000000 0.000000 0.000000 
-4.559812 82.849937 3.214956 0.000000 0.000000 0.000000 -0.013693 -57.844742 3.483924 -37.392622 5.720527 30.278830 49.885489 -11.087384 -10.741360 -12.333769 -1.570290 -11.480826 0.000000 0.000000 0.000000 -0.013693 -57.844742 3.483924 -32.661999 -5.336650 -32.522892 55.786294 6.373612 -6.850862 -24.355179 0.175777 25.236997 0.000000 0.000000 0.000000 -0.013693 -57.844742 3.483924 0.000000 0.000000 0.000000 10.987847 -0.080837 -2.389612 8.021431 -0.218875 -4.943915 0.000000 0.000000 0.000000 8.043890 -0.218785 -4.943431 -3.918366 5.044168 1.661424 0.000000 0.000000 0.000000 8.043890 -0.218785 -4.943431 -6.517729 -11.266676 -3.808850 -19.916944 11.490712 -34.664258 8.966803 -49.187846 3.756278 0.000000 0.000000 0.000000 8.043890 -0.218785 -4.943431 -5.677149 8.006201 0.598005 -27.295041 -19.926472 37.715444 167.963490 72.488265 -168.579833 0.000000 0.000000 0.000000 
-4.880991 82.736603 3.576883 0.000000 0.000000 0.000000 -0.939794 -57.611123 2.547683 -37.040983 5.611625 30.555039 50.691550 -11.675834 -10.813336 -13.111749 -1.498655 -11.251414 0.000000 0.000000 0.000000 -0.939794 -57.611123 2.547683 -31.527238 -5.616936 -32.604898 55.781513 6.258939 -6.931912 -24.867918 -0.015915 25.568651 0.000000 0.000000 0.000000 -0.939794 -57.611123 2.547683 0.000000 -0.000001 0.000000 10.873795 -0.147006 -2.269168 7.791971 -0.321394 -4.660419 0.000000 0.000000 0.000000 7.814439 -0.321277 -4.659952 -3.920631 4.918031 1.696426 0.000000 0.000000 0.000000 7.814439 -0.321277 -4.659952 -6.612179 -10.999740 -3.645094 -18.588510 12.512381 -33.564267 12.438362 -51.915045 5.832358 0.000000 0.000000 0.000000 7.814439 -0.321277 -4.659952 -5.772199 6.915184 -0.258731 -21.958196 -16.906550 39.510687 149.685003 71.724595 -150.623703 0.000000 0.000000 0.000000 
-5.233197 82.694992 3.928514 0.000000 0.000000 0.000000 -1.821229 -57.320068 1.624720 -36.627511 5.443366 30.758855 51.320826 -12.156954 -10.819167 -13.700464 -1.434161 -11.078932 0.000000 0.000000 0.000000 -1.821229 -57.320068 1.624720 -30.231807 -6.009919 -32.522359 55.521078 5.988611 -7.107260 -25.294526 -0.211115 25.965275 0.000000 0.000000 0.000000 -1.821229 -57.320068 1.624720 0.000000 -0.000001 0.000000 10.732974 -0.212718 -2.144335 7.508711 -0.422822 -4.366855 0.000000 0.000000 0.000000 7.531189 -0.422714 -4.366380 -3.870152 4.784007 1.731624 0.000000 0.000000 0.000000 7.531189 -0.422714 -4.366380 -6.671763 -10.584845 -3.418114 -17.246735 13.730735 -32.214659 15.504854 -54.870707 8.081085 0.000000 0.000000 0.000000 7.531189 -0.422714 -4.366380 -5.864169 5.845921 -1.136027 -16.889873 -14.076086 40.489047 134.153357 69.231200 -135.011229 0.000000 0.000000 0.000000 
-5.600111 82.764755 4.234354 0.000000 0.000000 0.000000 -2.603932 -56.974645 0.758880 -36.109496 5.251114 30.876905 51.588641 -12.485335 -10.751177 -14.035222 -1.378651 -11.010559 0.000000 0.000000 0.000000 -2.603932 -56.974645 0.758880 -28.805114 -6.537145 -32.229928 54.917180 5.564623 -7.364102 -25.560388 -0.377330 26.384239 0.000000 0.000000 0.000000 -2.603932 -56.974645 0.758880 0.000000 0.000003 0.000000 10.570945 -0.272678 -2.024804 7.183260 -0.515195 -4.084462 0.000000 0.000000 0.000000 7.205739 -0.515067 -4.083996 -3.754714 4.649392 1.763287 0.000000 0.000000 0.000000 7.205739 -0.515067 -4.083996 -6.711159 -9.993225 -3.113089 -15.989987 15.136133 -30.590006 17.441493 -58.011392 9.996524 0.000000 0.000000 0.000000 7.205739 -0.515067 -4.083996 -6.012601 4.896352 -1.604024 -12.431621 -11.857422 40.302856 123.683210 65.661948 -124.060319 0.000000 0.000000 0.000000 
-6.099895 83.074409 4.503405 0.000000 0.000000 0.000000 -3.256549 -56.433031 -0.095109 -35.325663 5.146448 30.905192 51.153496 -12.724835 -10.560075 -14.138268 -1.356447 -10.917339 0.000000 0.000000 0.000000 -3.256549 -56.433031 -0.095109 -26.848224 -7.497077 -31.581067 53.466062 4.852228 -7.646359 -25.608196 -0.491069 26.806447 0.000000 0.000000 0.000000 -3.256549 -56.433031 -0.095109 0.000000 -0.000002 0.000000 10.321518 -0.333303 -1.892478 6.683862 -0.605013 -3.764426 0.000000 0.000000 0.000000 6.706355 -0.604950 -3.763941 -3.464841 4.482106 1.794526 0.000000 0.000000 0.000000 6.706355 -0.604950 -3.763941 -6.731943 -8.817954 -2.534494 -14.611216 17.347632 -27.846791 15.807389 -62.632589 10.018924 0.000000 0.000000 0.000000 6.706355 -0.604950 -3.763941 -6.149591 3.829278 -2.217233 -7.965876 -10.783692 39.300806 117.184572 60.610559 -116.483235 0.000000 0.000000 0.000000 
-6.632107 83.469559 4.792175 0.000000 0.000000 0.000000 -4.036626 -55.712870 -1.026427 -34.338038 5.053485 30.773335 50.469596 -12.901153 -10.324552 -14.174342 -1.371802 -10.760804 0.000000 0.000000 0.000000 -4.036626 -55.712870 -1.026427 -24.527675 -8.627970 -30.859956 51.650615 4.020240 -7.984431 -25.537323 -0.600826 27.299223 0.000000 0.000000 0.000000 -4.036626 -55.712870 -1.026427 0.000000 -0.000001 0.000000 10.101764 -0.401580 -1.752967 6.244005 -0.712878 -3.427985 0.000000 0.000000 0.000000 6.266489 -0.712750 -3.427518 -3.085162 4.335262 1.840348 0.000000 0.000000 0.000000 6.266489 -0.712750 -3.427518 -6.722532 -7.491961 -1.619642 -13.216104 19.934324 -24.963368 13.990370 -67.127905 9.776251 0.000000 0.000000 0.000000 6.266489 -0.712750 -3.427518 -6.305544 2.749172 -2.930884 -3.519288 -10.665807 38.029329 113.939372 57.593344 -112.931229 0.000000 0.000000 0.000000 
-7.175822 83.917274 5.084427 0.000000 0.000000 0.000000 -4.750636 -54.909264 -1.888632 -33.270213 4.935910 30.540108 49.590018 -12.992321 -10.014167 -14.108070 -1.388918 -10.695830 0.000000 0.000000 0.000000 -4.750636 -54.909264 -1.888632 -22.015721 -9.812286 -30.017548 49.506427 3.117714 -8.344276 -25.333100 -0.687818 27.818162 0.000000 0.000000 0.000000 -4.750636 -54.909264 -1.888632 0.000000 -0.000001 0.000000 9.888398 -0.449391 -1.618504 5.818347 -0.783968 -3.101363 0.000000 0.000000 0.000000 5.840832 -0.783905 -3.100878 -2.789506 4.129480 1.842957 0.000000 0.000000 0.000000 5.840832 -0.783905 -3.100878 -6.706134 -6.010125 -0.294669 -12.280390 22.647376 -22.166807 10.216776 -71.763404 7.796371 0.000000 0.000000 0.000000 5.840832 -0.783905 -3.100878 -6.491983 1.459278 -4.091281 0.842979 -11.247527 37.125404 112.048714 55.607377 -111.142990 0.000000 0.000000 0.000000 
-7.736374 84.424431 5.387207 0.000000 0.000000 0.000000 -5.386454 -54.027329 -2.664591 -32.129244 4.923489 30.360703 48.366646 -13.192889 -9.792877 -13.860984 -1.429402 -10.621067 0.000000 0.000000 0.000000 -5.386454 -54.027329 -2.664591 -19.345700 -11.092729 -29.117291 47.015225 2.205924 -8.666204 -24.933880 -0.724562 28.308747 0.000000 0.000000 0.000000 -5.386454 -54.027329 -2.664591 0.000000 0.000002 0.000000 9.685733 -0.491130 -1.493498 5.413272 -0.848090 -2.793129 0.000000 0.000000 0.000000 5.435751 -0.847996 -2.792655 -2.436353 3.885351 1.841121 0.000000 0.000000 0.000000 5.435751 -0.847996 -2.792655 -6.714376 -4.329716 1.278059 -11.595401 25.907794 -19.266821 10.016688 -76.632550 8.818779 0.000000 0.000000 0.000000 5.435751 -0.847996 -2.792655 -6.699765 0.000620 -5.317388 4.871205 -12.447149 36.340513 110.880027 54.743451 -110.485126 0.000000 0.000000 0.000000 
